<svg width="90" height="91" viewBox="0 0 90 91" fill="none" xmlns="http://www.w3.org/2000/svg">
<g clip-path="url(#clip0_185_1672)">
<g clip-path="url(#clip1_185_1672)">
<path opacity="0.15" d="M81.8443 26.4653H8.15684C8.12309 26.4653 8.10059 26.4873 8.10059 26.5203V36.5523C8.10059 43.1303 13.6131 48.4653 20.3968 48.4653C24.9756 48.4653 28.9693 46.0453 31.0956 42.4483C31.4218 41.8873 32.0406 41.5353 32.7043 41.5353C33.3681 41.5353 33.9756 41.8873 34.3131 42.4483C36.4281 46.0453 40.4218 48.4653 45.0006 48.4653C49.5906 48.4653 53.5956 46.0343 55.6993 42.4263C56.0255 41.8763 56.6218 41.5353 57.2631 41.5353H57.3305C57.983 41.5353 58.568 41.8763 58.8943 42.4263C61.0093 46.0343 65.0143 48.4653 69.6043 48.4653C76.388 48.4653 81.9005 43.1303 81.9005 36.5523V26.5203C81.9005 26.4873 81.878 26.4653 81.8443 26.4653Z" fill="white"/>
<path d="M86.625 18.5563V4.46531C86.625 2.51831 85.0163 0.945312 83.025 0.945312H6.97506C4.98382 0.945312 3.37507 2.51831 3.37507 4.46531V18.5563C1.49632 18.6663 6.97042e-05 20.1953 6.97042e-05 22.0653V36.5523C-0.00713485 39.2148 0.544225 41.8504 1.62007 44.2963C2.10382 45.4183 2.70007 46.4743 3.37507 47.4753V85.4253C3.37507 87.3613 4.98382 88.9453 6.97506 88.9453H83.025C85.0163 88.9453 86.625 87.3723 86.625 85.4253V47.4753C87.3106 46.4718 87.8982 45.4074 88.38 44.2963C89.4487 41.8433 90 39.2363 90 36.5523V22.0653C90 20.1953 88.5038 18.6663 86.625 18.5563ZM11.4751 8.86531H78.525V18.5453H11.4751V8.86531ZM52.2 81.0363H37.8V69.5853H52.2V81.0363ZM78.57 81.0363H59.4V66.0653C59.4 64.1183 57.7913 62.5453 55.8 62.5453H34.2C32.2088 62.5453 30.6 64.1183 30.6 66.0653V81.0363H11.4751V54.3943C11.8013 54.5483 12.1388 54.7023 12.4876 54.8343C14.9963 55.8683 17.6626 56.3853 20.4076 56.3853C23.1526 56.3853 25.8076 55.8683 28.3275 54.8343C29.88 54.1963 31.3425 53.3823 32.6813 52.4033C32.7038 52.3923 32.7263 52.3923 32.7488 52.4033C34.0917 53.3865 35.5541 54.203 37.1025 54.8343C39.6113 55.8683 42.2775 56.3853 45.0225 56.3853C47.7675 56.3853 50.4225 55.8683 52.9425 54.8343C54.495 54.1963 55.9575 53.3823 57.2963 52.4033C57.3188 52.3923 57.3413 52.3923 57.3638 52.4033C58.7067 53.3865 60.1691 54.203 61.7175 54.8343C64.2263 55.8683 66.8925 56.3853 69.6375 56.3853C72.3825 56.3853 75.0375 55.8683 77.5575 54.8343C77.895 54.6913 78.2325 54.5483 78.57 54.3943V81.0363ZM81.9 36.5523C81.9 43.1303 76.3875 48.4653 69.6038 48.4653C65.0138 48.4653 61.0088 46.0343 58.8938 42.4263C58.5675 41.8763 57.9825 41.5353 57.33 41.5353H57.2625C56.6213 41.5353 56.025 41.8763 55.6988 42.4263C54.6194 44.2668 53.061 45.7951 51.1819 46.8558C49.3027 47.9165 47.1698 48.4718 45 48.4653C40.4213 48.4653 36.4275 46.0453 34.3125 42.4483C33.975 41.8873 33.3675 41.5353 32.7038 41.5353C32.04 41.5353 31.4213 41.8873 31.095 42.4483C30.0094 44.2817 28.449 45.8032 26.5708 46.8595C24.6926 47.9158 22.563 48.4696 20.3963 48.4653C13.6126 48.4653 8.10006 43.1303 8.10006 36.5523V26.5203C8.10006 26.4873 8.12256 26.4653 8.15631 26.4653H81.8438C81.8775 26.4653 81.9 26.4873 81.9 26.5203V36.5523Z" fill="white"/>
</g>
</g>
<defs>
<clipPath id="clip0_185_1672">
<rect width="90" height="90" fill="white" transform="translate(0 0.945312)"/>
</clipPath>
<clipPath id="clip1_185_1672">
<rect width="90" height="88" fill="white" transform="translate(0 0.945312)"/>
</clipPath>
</defs>
</svg>
