<svg width="90" height="91" viewBox="0 0 90 91" fill="none" xmlns="http://www.w3.org/2000/svg">
<g clip-path="url(#clip0_185_1660)">
<g clip-path="url(#clip1_185_1660)">
<path d="M46.1911 42.9401C54.5304 42.9401 61.0166 36.2199 61.0166 27.9723C61.0166 19.7248 54.2216 13.31 45.8822 13.31C37.5428 13.31 31.0566 20.0302 31.0566 27.9723C31.0566 36.2199 37.8517 42.9401 46.1911 42.9401ZM45.8822 19.4193C46.1911 19.4193 46.1911 19.4193 45.8822 19.4193C50.824 19.4193 54.8393 23.3903 54.8393 28.2778C54.8393 33.1652 50.824 36.8308 45.8822 36.8308C40.9403 36.8308 37.234 32.8598 37.234 28.2778C37.234 23.3903 41.2492 19.4193 45.8822 19.4193Z" fill="white"/>
<path d="M91.9026 41.1068C86.0341 35.9139 78.3125 33.1647 70.282 33.4702H67.811C67.1933 35.9139 66.2667 38.0522 65.0312 39.885C66.8844 39.5795 68.4288 39.5795 70.282 39.5795C76.1504 39.274 82.0189 41.1068 86.6519 44.4669V66.4604H92.8292V42.0232L91.9026 41.1068Z" fill="white"/>
<path d="M63.1796 13.9199C64.7239 10.2543 69.048 8.42153 73.0633 9.94886C76.7697 11.4762 78.6229 15.7527 77.0786 19.7238C75.8431 22.4729 73.0633 24.3057 70.2835 24.3057C69.6658 24.3057 68.7392 24.3057 68.1214 24.0003C68.4303 25.5276 68.4303 27.0549 68.4303 28.2768V30.1096C69.048 30.1096 69.6658 30.415 70.2835 30.415C78.0052 30.415 84.1825 24.3057 84.1825 16.9746C84.1825 9.33793 78.0051 3.22861 70.5924 3.22861C65.6505 3.22861 61.3264 5.67234 58.8555 9.94886C60.3998 10.8653 61.9441 12.0871 63.1796 13.9199Z" fill="white"/>
<path d="M27.9678 40.1906C26.7324 38.3578 25.8058 36.2196 25.188 33.7758H22.7171C14.6866 33.4704 6.96497 36.2196 1.09652 41.107L0.169922 42.0234V66.4607H6.34723V44.4671C11.2891 41.107 16.8487 39.2742 22.7171 39.5797C24.5703 39.5797 26.4235 39.8851 27.9678 40.1906Z" fill="white"/>
<path d="M22.7162 30.1107C23.334 30.1107 23.9517 30.1107 24.5694 29.8052V27.9725C24.5694 26.4451 24.5694 24.9178 24.8783 23.6959C24.2606 24.0014 23.334 24.0014 22.7162 24.0014C18.701 24.0014 15.3035 20.6413 15.3035 16.6702C15.3035 12.6992 18.701 9.33905 22.7162 9.33905C25.8049 9.33905 28.5847 11.1718 29.8201 13.921C31.0556 12.3937 32.9088 10.8664 34.4531 9.64452C30.4379 3.22974 22.0985 1.09148 15.6123 5.06254C9.12615 9.03359 6.96409 17.2812 10.9793 23.6959C13.4503 27.667 17.7744 30.1107 22.7162 30.1107Z" fill="white"/>
<path d="M71.5184 59.4349L70.9006 58.5185C64.7233 51.7983 56.0751 47.8272 46.8091 48.1327C37.5432 47.8272 28.5861 51.7983 22.4087 58.5185L21.791 59.4349V82.6503C21.791 85.3995 23.9531 87.8432 27.0417 87.8432H66.5765C69.3563 87.8432 71.8272 85.3995 71.8272 82.6503V59.4349H71.5184ZM65.3411 81.7339H27.9683V61.5732C32.9102 56.6857 39.7052 54.242 46.8091 54.242C53.6042 53.9365 60.3992 56.6857 65.3411 61.5732V81.7339Z" fill="white"/>
</g>
</g>
<defs>
<clipPath id="clip0_185_1660">
<rect width="90" height="90" fill="white" transform="translate(0 0.945312)"/>
</clipPath>
<clipPath id="clip1_185_1660">
<rect width="93" height="85" fill="white" transform="translate(0 2.94531)"/>
</clipPath>
</defs>
</svg>
