<svg width="65" height="87" viewBox="0 0 65 87" fill="none" xmlns="http://www.w3.org/2000/svg">
<g clip-path="url(#clip0_185_1691)">
<path d="M16.187 61.7095C14.7387 60.2547 15.4937 60.6648 12.0003 59.7257C10.4153 59.2988 9.022 58.4785 7.762 57.4958L0.200329 76.1185C-0.531337 77.9215 0.835329 79.8802 2.772 79.8066L11.5537 79.4701L17.5937 85.8786C18.927 87.2915 21.267 86.8512 21.9987 85.0482L30.6737 63.6833C28.867 64.6944 26.862 65.287 24.7887 65.287C21.5387 65.287 18.4853 64.0164 16.187 61.7095ZM63.8003 76.1185L56.2387 57.4958C54.9787 58.4801 53.5853 59.2988 52.0003 59.7257C48.4887 60.6699 49.2587 60.258 47.8137 61.7095C45.5153 64.0164 42.4603 65.287 39.2103 65.287C37.137 65.287 35.132 64.6927 33.3253 63.6833L42.0003 85.0482C42.732 86.8512 45.0737 87.2915 46.4053 85.8786L52.447 79.4701L61.2287 79.8066C63.1653 79.8802 64.532 77.9199 63.8003 76.1185ZM43.8337 57.921C46.3803 55.3177 46.672 55.5421 50.2987 54.5493C52.6137 53.9148 54.4237 52.065 55.0437 49.6978C56.2903 44.9433 55.967 45.5175 59.3687 42.0387C61.0637 40.306 61.7253 37.7798 61.1053 35.4126C59.8603 30.6615 59.8587 31.3244 61.1053 26.5683C61.7253 24.2011 61.0637 21.6749 59.3687 19.9422C55.967 16.4634 56.2903 17.0359 55.0437 12.2832C54.4237 9.91597 52.6137 8.06608 50.2987 7.43159C45.652 6.1576 46.212 6.49075 42.807 3.01028C41.112 1.27758 38.6403 0.599564 36.3253 1.23405C31.6803 2.50637 32.3287 2.50805 27.6753 1.23405C25.3603 0.599564 22.8887 1.2759 21.1937 3.01028C17.792 6.48907 18.352 6.1576 13.7037 7.43159C11.3887 8.06608 9.57866 9.91597 8.95866 12.2832C7.71366 17.0359 8.03533 16.4634 4.63366 19.9422C2.93866 21.6749 2.27533 24.2011 2.897 26.5683C4.142 31.3161 4.14366 30.6531 2.897 35.4109C2.277 37.7781 2.93866 40.3044 4.63366 42.0387C8.03533 45.5175 7.712 44.9433 8.95866 49.6978C9.57866 52.065 11.3887 53.9148 13.7037 54.5493C17.4337 55.5705 17.712 55.4098 20.167 57.921C22.372 60.176 25.807 60.5795 28.457 58.8953C29.5167 58.2196 30.746 57.8607 32.0012 57.8607C33.2564 57.8607 34.4856 58.2196 35.5453 58.8953C38.1937 60.5795 41.6287 60.176 43.8337 57.921ZM16.277 30.4589C16.277 21.5811 23.317 14.3842 32.0003 14.3842C40.6837 14.3842 47.7237 21.5811 47.7237 30.4589C47.7237 39.3367 40.6837 46.5337 32.0003 46.5337C23.317 46.5337 16.277 39.3367 16.277 30.4589Z" fill="white"/>
</g>
<defs>
<clipPath id="clip0_185_1691">
<rect width="64" height="85.7143" fill="white" transform="translate(0.5 0.945312)"/>
</clipPath>
</defs>
</svg>
