<svg width="90" height="91" viewBox="0 0 90 91" fill="none" xmlns="http://www.w3.org/2000/svg">
<g clip-path="url(#clip0_185_1680)">
<path d="M54.6406 24.1397H77.1366V31.4083H54.6406V24.1397Z" fill="white"/>
<path d="M54.6406 42.3114H77.1366V49.58H54.6406V42.3114Z" fill="white"/>
<path d="M54.6406 60.4825H77.1366V67.7511H54.6406V60.4825Z" fill="white"/>
<path d="M83.5714 5.94531H6.42857C4.72413 5.94724 3.08999 6.71409 1.88476 8.07757C0.679542 9.44106 0.00170189 11.2898 0 13.218V78.6726C0.00170189 80.6008 0.679542 82.4496 1.88476 83.8131C3.08999 85.1765 4.72413 85.9434 6.42857 85.9453H83.5714C85.2756 85.9424 86.9093 85.1753 88.1143 83.812C89.3193 82.4487 89.9974 80.6005 90 78.6726V13.218C89.9983 11.2898 89.3205 9.44106 88.1152 8.07757C86.91 6.71409 85.2759 5.94724 83.5714 5.94531ZM6.42857 13.218H41.7857V78.6726H6.42857V13.218ZM48.2143 78.6726V13.218H83.5714L83.5779 78.6726H48.2143Z" fill="white"/>
</g>
<defs>
<clipPath id="clip0_185_1680">
<rect width="90" height="80" fill="white" transform="translate(0 5.94531)"/>
</clipPath>
</defs>
</svg>
